<?xml version="1.0" encoding="utf-8"?>
<svg viewBox="0 0 110.777 82.148" xmlns="http://www.w3.org/2000/svg">
  <rect x="-0.503" y="-0.901" width="111.771" height="84.129" style="fill: none;"/>
  <path d="M 27.472 62.153 Q 22.04 62.153 19.156 59.017 Q 16.272 55.881 16.272 50.617 L 16.272 49.777 L 22.488 49.777 L 22.488 50.785 Q 22.488 53.809 23.72 55.433 Q 24.952 57.057 27.304 57.057 Q 29.488 57.057 30.832 55.545 Q 32.176 54.033 32.176 50.841 Q 32.176 48.321 31.448 46.949 Q 30.72 45.577 29.516 45.045 Q 28.312 44.513 26.968 44.513 L 24.672 44.513 L 24.672 39.417 L 27.08 39.417 Q 28.928 39.417 30.216 37.877 Q 31.504 36.337 31.504 33.201 Q 31.504 30.233 30.328 28.861 Q 29.152 27.489 27.36 27.489 Q 25.456 27.489 24.308 28.973 Q 23.16 30.457 23.16 33.425 L 23.16 34.321 L 16.944 34.321 L 16.944 32.921 Q 16.944 29.729 18.288 27.349 Q 19.632 24.969 21.956 23.681 Q 24.28 22.393 27.304 22.393 Q 31.952 22.393 34.836 25.081 Q 37.72 27.769 37.72 32.921 Q 37.72 36.337 36.292 38.325 Q 34.864 40.313 32.736 41.545 L 32.736 41.769 Q 35.2 42.665 36.796 45.017 Q 38.392 47.369 38.392 51.177 Q 38.392 54.593 36.992 57.057 Q 35.592 59.521 33.128 60.837 Q 30.664 62.153 27.472 62.153 Z" style="fill: rgb(255, 255, 255); white-space: pre; opacity: 0.9;"/>
  <path d="M 55.302 62.153 Q 51.774 62.153 48.778 60.893 Q 45.782 59.633 43.962 57.001 Q 42.142 54.369 42.142 50.337 Q 42.142 50.057 42.17 49.693 Q 42.198 49.329 42.198 49.161 L 48.806 49.161 Q 48.806 49.217 48.778 49.581 Q 48.75 49.945 48.75 50.169 Q 48.75 53.193 50.57 54.873 Q 52.39 56.553 55.414 56.553 Q 58.886 56.553 60.454 55.041 Q 62.022 53.529 62.022 51.401 Q 62.022 49.385 60.986 48.181 Q 59.95 46.977 58.242 46.165 Q 56.534 45.353 54.518 44.737 Q 52.502 44.121 50.43 43.337 Q 48.358 42.553 46.678 41.293 Q 44.998 40.033 43.962 38.045 Q 42.926 36.057 42.926 32.977 Q 42.926 29.393 44.662 27.041 Q 46.398 24.689 49.282 23.541 Q 52.166 22.393 55.526 22.393 Q 58.942 22.393 61.714 23.541 Q 64.486 24.689 66.166 27.153 Q 67.846 29.617 67.846 33.537 L 67.846 34.209 L 61.294 34.209 L 61.294 33.593 Q 61.294 30.961 59.726 29.477 Q 58.158 27.993 55.526 27.993 Q 52.782 27.993 51.158 29.197 Q 49.534 30.401 49.534 32.529 Q 49.534 34.321 50.598 35.413 Q 51.662 36.505 53.342 37.205 Q 55.022 37.905 57.066 38.521 Q 59.11 39.137 61.154 39.921 Q 63.198 40.705 64.878 41.965 Q 66.558 43.225 67.594 45.157 Q 68.63 47.089 68.63 50.113 Q 68.63 54.481 66.922 57.113 Q 65.214 59.745 62.19 60.949 Q 59.166 62.153 55.302 62.153 Z" style="fill: rgb(255, 255, 255); white-space: pre; opacity: 0.9;"/>
  <path d="M 81.674 61.481 L 81.674 28.777 L 71.874 28.777 L 71.874 23.065 L 97.97 23.065 L 97.97 28.777 L 88.114 28.777 L 88.114 61.481 Z" style="fill: rgb(255, 255, 255); white-space: pre; opacity: 0.9;"/>
</svg>